<svg xmlns="http://www.w3.org/2000/svg" xmlns:xlink="http://www.w3.org/1999/xlink" width="214" zoomAndPan="magnify" viewBox="0 0 160.5 49.499998" height="66" preserveAspectRatio="xMidYMid meet" version="1.0"><defs><g/><clipPath id="416f230aff"><path d="M 3.824219 4.4375 L 43.304688 4.4375 L 43.304688 43.914062 L 3.824219 43.914062 Z M 3.824219 4.4375 " clip-rule="nonzero"/></clipPath><clipPath id="97547aeb7f"><path d="M 23.5625 4.4375 C 12.660156 4.4375 3.824219 13.273438 3.824219 24.175781 C 3.824219 35.078125 12.660156 43.914062 23.5625 43.914062 C 34.464844 43.914062 43.304688 35.078125 43.304688 24.175781 C 43.304688 13.273438 34.464844 4.4375 23.5625 4.4375 Z M 23.5625 4.4375 " clip-rule="nonzero"/></clipPath><clipPath id="69769e728e"><path d="M 0.824219 0.4375 L 40.304688 0.4375 L 40.304688 39.914062 L 0.824219 39.914062 Z M 0.824219 0.4375 " clip-rule="nonzero"/></clipPath><clipPath id="808f22ca10"><path d="M 20.5625 0.4375 C 9.660156 0.4375 0.824219 9.273438 0.824219 20.175781 C 0.824219 31.078125 9.660156 39.914062 20.5625 39.914062 C 31.464844 39.914062 40.304688 31.078125 40.304688 20.175781 C 40.304688 9.273438 31.464844 0.4375 20.5625 0.4375 Z M 20.5625 0.4375 " clip-rule="nonzero"/></clipPath><clipPath id="6585cdc738"><rect x="0" width="41" y="0" height="40"/></clipPath><clipPath id="15bca8fef2"><path d="M 14.1875 0.6875 L 32.75 0.6875 L 32.75 48 L 14.1875 48 Z M 14.1875 0.6875 " clip-rule="nonzero"/></clipPath><clipPath id="76fe491cff"><path d="M 59 8 L 70 8 L 70 26.816406 L 59 26.816406 Z M 59 8 " clip-rule="nonzero"/></clipPath><clipPath id="f444aa136d"><rect x="0" width="102" y="0" height="27"/></clipPath></defs><g clip-path="url(#416f230aff)"><g clip-path="url(#97547aeb7f)"><g transform="matrix(1, 0, 0, 1, 3, 4)"><g clip-path="url(#6585cdc738)"><g clip-path="url(#69769e728e)"><g clip-path="url(#808f22ca10)"><path fill="#63c1ca" d="M 0.824219 0.4375 L 40.304688 0.4375 L 40.304688 39.914062 L 0.824219 39.914062 Z M 0.824219 0.4375 " fill-opacity="1" fill-rule="nonzero"/></g></g></g></g></g></g><g clip-path="url(#15bca8fef2)"><path fill="#202b56" d="M 32.726562 9.105469 C 32.714844 8.710938 32.703125 8.375 32.6875 8.09375 C 32.679688 7.988281 32.675781 7.890625 32.667969 7.804688 C 32.667969 7.785156 32.664062 7.765625 32.664062 7.746094 C 32.660156 7.71875 32.65625 7.6875 32.65625 7.660156 C 32.644531 7.566406 32.609375 7.484375 32.554688 7.417969 C 32.535156 7.398438 32.511719 7.375 32.492188 7.359375 C 32.472656 7.34375 32.453125 7.332031 32.433594 7.320312 C 32.390625 7.300781 32.347656 7.285156 32.300781 7.273438 C 32.25 7.265625 32.195312 7.257812 32.140625 7.25 C 31.945312 5.996094 31.398438 4.871094 30.628906 3.925781 C 29.8125 2.933594 28.75 2.144531 27.574219 1.613281 C 26.277344 1.027344 24.832031 0.722656 23.390625 0.722656 C 21.988281 0.722656 20.582031 1.011719 19.320312 1.625 C 18.1875 2.171875 17.136719 2.96875 16.320312 3.957031 C 15.550781 4.894531 14.988281 6.011719 14.792969 7.25 C 14.738281 7.257812 14.683594 7.265625 14.632812 7.273438 C 14.609375 7.28125 14.585938 7.285156 14.566406 7.292969 C 14.410156 7.347656 14.296875 7.488281 14.277344 7.660156 C 14.25 7.945312 14.230469 8.335938 14.214844 8.828125 C 14.214844 8.917969 14.210938 9.007812 14.207031 9.105469 C 14.191406 9.722656 14.1875 10.476562 14.1875 11.332031 C 14.1875 11.472656 14.1875 11.617188 14.1875 11.765625 C 14.1875 11.777344 14.1875 11.792969 14.1875 11.804688 C 14.1875 12.105469 14.1875 12.417969 14.191406 12.738281 C 14.191406 12.742188 14.191406 12.742188 14.191406 12.746094 C 14.191406 12.910156 14.195312 13.074219 14.195312 13.246094 C 14.226562 16.21875 14.316406 19.925781 14.449219 23.484375 C 14.53125 25.671875 14.628906 27.800781 14.742188 29.664062 C 14.851562 31.53125 14.972656 33.136719 15.105469 34.277344 C 15.308594 36.015625 15.546875 37.738281 15.832031 39.441406 C 15.832031 39.511719 15.847656 39.578125 15.878906 39.644531 C 15.898438 39.691406 15.925781 39.734375 15.964844 39.769531 C 17.257812 41.519531 18.726562 43.097656 20.324219 44.46875 C 20.871094 44.9375 21.4375 45.4375 22.027344 45.90625 C 22.226562 46.308594 22.414062 46.707031 22.644531 47.117188 C 22.914062 47.597656 23.382812 48.175781 23.871094 47.5625 C 24.21875 47.125 24.496094 46.582031 24.734375 46.042969 C 25.386719 45.535156 26.011719 44.984375 26.609375 44.46875 C 28.207031 43.097656 29.671875 41.519531 30.96875 39.769531 C 31.003906 39.734375 31.035156 39.691406 31.054688 39.644531 C 31.085938 39.578125 31.101562 39.511719 31.101562 39.441406 C 31.386719 37.738281 31.625 36.015625 31.828125 34.277344 C 31.960938 33.136719 32.082031 31.53125 32.191406 29.664062 C 32.484375 24.761719 32.691406 18.046875 32.738281 13.246094 C 32.738281 13.226562 32.738281 13.210938 32.738281 13.191406 C 32.742188 12.53125 32.746094 11.90625 32.746094 11.332031 C 32.746094 10.476562 32.742188 9.722656 32.726562 9.105469 " fill-opacity="1" fill-rule="nonzero"/></g><path fill="#f9a873" d="M 29.5 40.070312 C 28.996094 40.121094 28.410156 40.164062 27.765625 40.199219 C 26.480469 40.265625 24.972656 40.296875 23.464844 40.296875 C 21.203125 40.296875 18.945312 40.222656 17.433594 40.070312 C 17.375 40.066406 17.320312 40.058594 17.265625 40.054688 C 17.9375 40.898438 18.652344 41.695312 19.402344 42.445312 C 19.882812 42.921875 20.371094 43.378906 20.878906 43.8125 C 21.367188 44.234375 21.867188 44.667969 22.371094 45.078125 C 23.054688 44.898438 23.757812 44.960938 24.472656 45.152344 C 25.007812 44.722656 25.535156 44.257812 26.054688 43.8125 C 27.027344 42.976562 27.949219 42.0625 28.8125 41.078125 C 29.105469 40.746094 29.390625 40.402344 29.667969 40.054688 C 29.613281 40.058594 29.558594 40.066406 29.5 40.070312 " fill-opacity="1" fill-rule="nonzero"/><path fill="#fbbf3c" d="M 28.28125 26.03125 C 27.410156 26.03125 26.707031 25.320312 26.707031 24.445312 C 26.707031 23.570312 27.410156 22.859375 28.28125 22.859375 C 29.148438 22.859375 29.851562 23.570312 29.851562 24.445312 C 29.851562 25.320312 29.148438 26.03125 28.28125 26.03125 Z M 24.984375 26.871094 C 24.597656 27.261719 24.058594 27.503906 23.464844 27.5 C 22.875 27.503906 22.335938 27.261719 21.949219 26.871094 C 21.558594 26.484375 21.316406 25.945312 21.308594 25.351562 C 21.308594 25.113281 21.496094 24.917969 21.734375 24.914062 C 21.96875 24.910156 22.164062 25.101562 22.164062 25.339844 C 22.167969 25.703125 22.316406 26.023438 22.550781 26.257812 C 22.789062 26.496094 23.109375 26.640625 23.464844 26.640625 C 23.824219 26.640625 24.144531 26.496094 24.382812 26.257812 C 24.617188 26.023438 24.765625 25.703125 24.769531 25.339844 C 24.769531 25.101562 24.964844 24.910156 25.199219 24.914062 C 25.4375 24.917969 25.625 25.113281 25.625 25.351562 C 25.617188 25.945312 25.375 26.484375 24.984375 26.871094 Z M 18.652344 26.03125 C 17.785156 26.03125 17.082031 25.320312 17.082031 24.445312 C 17.082031 23.957031 17.300781 23.519531 17.644531 23.230469 C 17.917969 23 18.269531 22.859375 18.652344 22.859375 C 19.339844 22.859375 19.917969 23.300781 20.136719 23.914062 C 20.195312 24.082031 20.226562 24.257812 20.226562 24.445312 C 20.226562 25.320312 19.523438 26.03125 18.652344 26.03125 Z M 28.605469 13.417969 C 27.058594 13.359375 25.261719 13.332031 23.464844 13.332031 C 21.671875 13.332031 19.875 13.359375 18.328125 13.417969 C 17.003906 13.464844 15.855469 13.535156 15.054688 13.621094 C 15.058594 13.96875 15.066406 14.324219 15.070312 14.6875 C 15.140625 19.292969 15.332031 25.160156 15.589844 29.558594 C 15.59375 29.578125 15.59375 29.597656 15.59375 29.613281 C 15.703125 31.472656 15.828125 33.066406 15.957031 34.179688 C 16.148438 35.835938 16.378906 37.476562 16.644531 39.101562 C 16.882812 39.140625 17.179688 39.179688 17.515625 39.214844 C 18.003906 39.261719 18.578125 39.304688 19.210938 39.335938 C 20.476562 39.402344 21.972656 39.433594 23.464844 39.433594 C 25.707031 39.4375 27.953125 39.359375 29.417969 39.214844 C 29.753906 39.179688 30.050781 39.140625 30.289062 39.101562 C 30.414062 38.339844 30.53125 37.574219 30.640625 36.804688 C 30.761719 35.933594 30.875 35.058594 30.976562 34.179688 C 31.105469 33.066406 31.226562 31.472656 31.339844 29.613281 C 31.449219 27.757812 31.546875 25.632812 31.628906 23.453125 C 31.679688 22.054688 31.726562 20.632812 31.765625 19.238281 C 31.820312 17.25 31.859375 15.324219 31.878906 13.621094 C 31.078125 13.535156 29.929688 13.464844 28.605469 13.417969 " fill-opacity="1" fill-rule="nonzero"/><path fill="#9983c9" d="M 31.871094 9.125 C 31.859375 8.707031 31.847656 8.355469 31.828125 8.078125 C 31.527344 8.039062 31.15625 8.003906 30.730469 7.972656 C 30.132812 7.925781 29.429688 7.890625 28.660156 7.859375 C 27.113281 7.800781 25.289062 7.769531 23.464844 7.769531 C 20.734375 7.769531 17.996094 7.835938 16.203125 7.972656 C 15.777344 8.003906 15.40625 8.039062 15.105469 8.078125 C 15.09375 8.246094 15.085938 8.4375 15.078125 8.65625 C 15.074219 8.804688 15.066406 8.957031 15.0625 9.125 C 15.050781 9.734375 15.042969 10.480469 15.042969 11.328125 C 15.042969 11.527344 15.042969 11.734375 15.042969 11.941406 C 15.042969 12.203125 15.046875 12.476562 15.046875 12.753906 C 15.878906 12.667969 17.003906 12.601562 18.296875 12.554688 C 19.859375 12.496094 21.664062 12.46875 23.464844 12.46875 C 25.269531 12.46875 27.074219 12.496094 28.636719 12.554688 C 29.929688 12.601562 31.054688 12.667969 31.886719 12.753906 C 31.886719 12.589844 31.886719 12.421875 31.890625 12.261719 C 31.890625 12.101562 31.890625 11.941406 31.890625 11.789062 C 31.890625 11.785156 31.890625 11.78125 31.890625 11.777344 C 31.890625 11.625 31.890625 11.476562 31.890625 11.332031 C 31.890625 10.480469 31.882812 9.734375 31.871094 9.125 " fill-opacity="1" fill-rule="nonzero"/><path fill="#f366ba" d="M 30.496094 5.226562 C 30.335938 4.964844 30.160156 4.714844 29.96875 4.476562 C 29.4375 3.832031 28.785156 3.277344 28.054688 2.835938 C 27.785156 2.675781 27.507812 2.527344 27.222656 2.398438 C 26.042969 1.867188 24.714844 1.585938 23.390625 1.585938 C 22.105469 1.585938 20.824219 1.851562 19.691406 2.402344 C 18.660156 2.898438 17.707031 3.625 16.980469 4.507812 C 16.757812 4.777344 16.558594 5.058594 16.382812 5.355469 C 16.164062 5.722656 15.984375 6.109375 15.851562 6.515625 C 15.78125 6.722656 15.726562 6.933594 15.679688 7.148438 C 15.828125 7.136719 15.980469 7.125 16.140625 7.113281 C 16.75 7.066406 17.460938 7.027344 18.242188 6.996094 C 19.800781 6.9375 21.632812 6.90625 23.464844 6.90625 C 26.214844 6.90625 28.960938 6.972656 30.792969 7.113281 C 30.953125 7.125 31.105469 7.136719 31.253906 7.148438 C 31.117188 6.460938 30.855469 5.816406 30.496094 5.226562 " fill-opacity="1" fill-rule="nonzero"/><path fill="#f688c9" d="M 28.054688 2.835938 C 27.785156 2.675781 27.507812 2.527344 27.222656 2.398438 C 26.042969 1.867188 24.714844 1.585938 23.390625 1.585938 C 22.105469 1.585938 20.824219 1.851562 19.691406 2.402344 C 18.660156 2.898438 17.707031 3.625 16.980469 4.507812 C 16.757812 4.777344 16.558594 5.058594 16.382812 5.355469 C 18.125 3.917969 20.34375 3.105469 22.582031 2.804688 C 24.398438 2.558594 26.230469 2.625 28.054688 2.835938 " fill-opacity="1" fill-rule="nonzero"/><path fill="#f252b1" d="M 18.242188 6.996094 C 19.800781 6.9375 21.632812 6.90625 23.464844 6.90625 C 26.214844 6.90625 28.960938 6.972656 30.792969 7.113281 C 30.953125 7.125 31.105469 7.136719 31.253906 7.148438 C 31.117188 6.460938 30.855469 5.816406 30.496094 5.226562 C 29.671875 5.558594 28.777344 5.742188 27.890625 5.8125 C 26.339844 5.9375 24.78125 5.765625 23.226562 5.726562 C 20.75 5.660156 18.261719 5.929688 15.851562 6.515625 C 15.78125 6.722656 15.726562 6.933594 15.679688 7.148438 C 15.828125 7.136719 15.980469 7.125 16.140625 7.113281 C 16.75 7.066406 17.460938 7.027344 18.242188 6.996094 " fill-opacity="1" fill-rule="nonzero"/><path fill="#f8995d" d="M 27.765625 40.199219 C 26.480469 40.265625 24.972656 40.296875 23.464844 40.296875 C 21.203125 40.296875 18.945312 40.222656 17.433594 40.070312 C 17.375 40.066406 17.320312 40.058594 17.265625 40.054688 C 17.9375 40.898438 18.652344 41.695312 19.402344 42.445312 C 19.550781 42.28125 19.710938 42.132812 19.886719 42.003906 C 20.5 41.554688 21.238281 41.308594 21.976562 41.125 C 24.210938 40.578125 26.570312 40.5625 28.8125 41.078125 C 29.105469 40.746094 29.390625 40.402344 29.667969 40.054688 C 29.613281 40.058594 29.558594 40.066406 29.5 40.070312 C 28.996094 40.121094 28.410156 40.164062 27.765625 40.199219 " fill-opacity="1" fill-rule="nonzero"/><path fill="#f9b025" d="M 19.671875 36.511719 C 18.984375 36.195312 18.3125 35.8125 17.742188 35.320312 C 17.796875 36.179688 17.851562 37.039062 17.902344 37.898438 C 17.917969 38.136719 17.738281 38.34375 17.503906 38.359375 C 17.269531 38.371094 17.066406 38.191406 17.050781 37.953125 C 16.972656 36.722656 16.894531 35.492188 16.820312 34.261719 C 16.199219 33.28125 15.960938 32.09375 15.785156 30.9375 C 15.710938 30.480469 15.648438 30.019531 15.589844 29.558594 C 15.59375 29.578125 15.59375 29.597656 15.59375 29.613281 C 15.703125 31.472656 15.828125 33.066406 15.957031 34.179688 C 16.148438 35.835938 16.378906 37.476562 16.644531 39.101562 C 16.882812 39.140625 17.179688 39.179688 17.515625 39.214844 C 18.003906 39.261719 18.578125 39.304688 19.210938 39.335938 C 20.476562 39.402344 21.972656 39.433594 23.464844 39.433594 C 25.707031 39.4375 27.953125 39.359375 29.417969 39.214844 C 29.753906 39.179688 30.050781 39.140625 30.289062 39.101562 C 30.414062 38.339844 30.53125 37.574219 30.640625 36.804688 C 29.613281 37.210938 28.539062 37.5 27.445312 37.652344 C 24.816406 38.015625 22.085938 37.617188 19.671875 36.511719 " fill-opacity="1" fill-rule="nonzero"/><path fill="#fcd761" d="M 20.136719 23.914062 C 20.878906 23.796875 21.582031 23.410156 22.089844 22.769531 C 23.167969 21.410156 22.945312 19.421875 21.589844 18.335938 C 20.238281 17.25 18.269531 17.476562 17.191406 18.835938 C 16.128906 20.183594 16.335938 22.136719 17.644531 23.230469 C 17.917969 23 18.269531 22.859375 18.652344 22.859375 C 19.339844 22.859375 19.917969 23.300781 20.136719 23.914062 " fill-opacity="1" fill-rule="nonzero"/><path fill="#fcd761" d="M 17.695312 16.648438 C 17.972656 16.296875 17.917969 15.78125 17.566406 15.5 C 17.214844 15.21875 16.707031 15.277344 16.425781 15.628906 C 16.144531 15.984375 16.203125 16.496094 16.554688 16.777344 C 16.90625 17.058594 17.414062 17.003906 17.695312 16.648438 " fill-opacity="1" fill-rule="nonzero"/><path fill="#f9b025" d="M 23.464844 13.332031 C 21.671875 13.332031 19.875 13.359375 18.328125 13.417969 C 17.003906 13.464844 15.855469 13.535156 15.054688 13.621094 C 15.058594 13.96875 15.066406 14.324219 15.070312 14.6875 C 19.308594 13.574219 23.960938 14.136719 27.808594 16.246094 C 28.542969 16.648438 29.246094 17.109375 29.917969 17.617188 C 29.894531 16.820312 29.835938 16.023438 29.738281 15.230469 C 29.710938 14.996094 29.875 14.78125 30.113281 14.75 C 30.347656 14.722656 30.558594 14.890625 30.589844 15.125 C 30.71875 16.175781 30.78125 17.234375 30.78125 18.292969 C 30.78125 18.300781 30.78125 18.3125 30.78125 18.320312 C 31.121094 18.613281 31.449219 18.921875 31.765625 19.238281 C 31.820312 17.25 31.859375 15.324219 31.878906 13.621094 C 31.078125 13.535156 29.929688 13.464844 28.605469 13.417969 C 27.058594 13.359375 25.261719 13.332031 23.464844 13.332031 " fill-opacity="1" fill-rule="nonzero"/><path fill="#836bbc" d="M 23.347656 11.210938 C 20.566406 11.246094 17.800781 11.566406 15.042969 11.941406 C 15.042969 12.203125 15.046875 12.476562 15.046875 12.753906 C 15.878906 12.667969 17.003906 12.601562 18.296875 12.554688 C 19.859375 12.496094 21.664062 12.46875 23.464844 12.46875 C 25.269531 12.46875 27.074219 12.496094 28.636719 12.554688 C 29.929688 12.601562 31.054688 12.667969 31.886719 12.753906 C 31.886719 12.589844 31.886719 12.421875 31.890625 12.261719 C 29.132812 11.449219 26.226562 11.171875 23.347656 11.210938 " fill-opacity="1" fill-rule="nonzero"/><path fill="#fcd761" d="M 24.152344 22.578125 C 24.410156 22.578125 24.621094 22.371094 24.621094 22.113281 C 24.621094 21.851562 24.410156 21.644531 24.152344 21.644531 C 23.898438 21.644531 23.6875 21.851562 23.6875 22.113281 C 23.6875 22.371094 23.898438 22.578125 24.152344 22.578125 " fill-opacity="1" fill-rule="nonzero"/><path fill="#e774c0" d="M 18.382812 26.226562 C 17.601562 26.226562 16.972656 26.59375 16.972656 27.042969 C 16.972656 27.496094 17.601562 27.859375 18.382812 27.859375 C 19.160156 27.859375 19.789062 27.496094 19.789062 27.042969 C 19.789062 26.59375 19.160156 26.226562 18.382812 26.226562 " fill-opacity="1" fill-rule="nonzero"/><path fill="#e774c0" d="M 28.550781 26.226562 C 27.773438 26.226562 27.144531 26.59375 27.144531 27.042969 C 27.144531 27.496094 27.773438 27.859375 28.550781 27.859375 C 29.332031 27.859375 29.960938 27.496094 29.960938 27.042969 C 29.960938 26.59375 29.332031 26.226562 28.550781 26.226562 " fill-opacity="1" fill-rule="nonzero"/><path fill="#ffffff" d="M 19.324219 23.976562 C 19.125 23.976562 18.964844 24.140625 18.964844 24.34375 C 18.964844 24.542969 19.125 24.707031 19.324219 24.707031 C 19.523438 24.707031 19.6875 24.542969 19.6875 24.34375 C 19.6875 24.140625 19.523438 23.976562 19.324219 23.976562 " fill-opacity="1" fill-rule="nonzero"/><path fill="#ffffff" d="M 27.609375 24.707031 C 27.808594 24.707031 27.96875 24.542969 27.96875 24.34375 C 27.96875 24.140625 27.808594 23.976562 27.609375 23.976562 C 27.410156 23.976562 27.246094 24.140625 27.246094 24.34375 C 27.246094 24.542969 27.410156 24.707031 27.609375 24.707031 " fill-opacity="1" fill-rule="nonzero"/><path fill="#feebf5" d="M 17.503906 38.359375 C 17.738281 38.34375 17.917969 38.136719 17.902344 37.898438 C 17.851562 37.039062 17.796875 36.179688 17.742188 35.320312 C 17.625 33.414062 17.503906 31.511719 17.386719 29.605469 C 17.371094 29.371094 17.167969 29.1875 16.929688 29.203125 C 16.695312 29.21875 16.515625 29.421875 16.53125 29.660156 C 16.625 31.195312 16.722656 32.726562 16.820312 34.261719 C 16.894531 35.492188 16.972656 36.722656 17.050781 37.953125 C 17.066406 38.191406 17.269531 38.371094 17.503906 38.359375 " fill-opacity="1" fill-rule="nonzero"/><path fill="#feebf5" d="M 29.832031 20.460938 C 29.8125 20.695312 29.984375 20.90625 30.222656 20.925781 C 30.457031 20.949219 30.664062 20.773438 30.683594 20.535156 C 30.75 19.796875 30.78125 19.058594 30.78125 18.320312 C 30.78125 18.3125 30.78125 18.300781 30.78125 18.292969 C 30.78125 17.234375 30.71875 16.175781 30.589844 15.125 C 30.558594 14.890625 30.347656 14.722656 30.113281 14.75 C 29.875 14.78125 29.710938 14.996094 29.738281 15.230469 C 29.835938 16.023438 29.894531 16.820312 29.917969 17.617188 C 29.921875 17.84375 29.925781 18.066406 29.925781 18.292969 C 29.925781 19.015625 29.894531 19.738281 29.832031 20.460938 " fill-opacity="1" fill-rule="nonzero"/><path fill="#f9b025" d="M 24.359375 28.058594 C 23.976562 28.039062 23.585938 28.03125 23.203125 28.039062 C 22.878906 28.046875 22.554688 28.09375 22.554688 28.277344 C 22.503906 28.414062 22.648438 28.550781 22.8125 28.628906 C 23.320312 28.859375 24.191406 28.75 24.582031 28.417969 C 24.800781 28.230469 24.660156 28.070312 24.359375 28.058594 " fill-opacity="1" fill-rule="nonzero"/><g transform="matrix(1, 0, 0, 1, 49, 15)"><g clip-path="url(#f444aa136d)"><g fill="#b15998" fill-opacity="1"><g transform="translate(1.323497, 17.139788)"><g><path d="M 8.25 -14.71875 C 8.945312 -14.75 9.53125 -14.5625 10 -14.15625 C 10.476562 -13.757812 10.789062 -13.222656 10.9375 -12.546875 C 11.09375 -11.878906 11.023438 -11.144531 10.734375 -10.34375 C 10.421875 -9.445312 9.96875 -8.609375 9.375 -7.828125 C 8.78125 -7.054688 8.109375 -6.378906 7.359375 -5.796875 C 6.617188 -5.210938 5.84375 -4.75 5.03125 -4.40625 C 4.21875 -4.070312 3.414062 -3.882812 2.625 -3.84375 L 2.15625 -0.234375 C 2.125 -0.140625 2.070312 -0.09375 2 -0.09375 L 0.40625 0 C 0.300781 0 0.25 -0.0507812 0.25 -0.15625 L 2.140625 -15.046875 C 2.140625 -15.117188 2.1875 -15.15625 2.28125 -15.15625 L 3.890625 -15.3125 C 3.929688 -15.332031 3.972656 -15.320312 4.015625 -15.28125 C 4.054688 -15.238281 4.066406 -15.195312 4.046875 -15.15625 L 3.609375 -11.75 C 3.941406 -12.238281 4.332031 -12.703125 4.78125 -13.140625 C 5.238281 -13.578125 5.757812 -13.941406 6.34375 -14.234375 C 6.925781 -14.523438 7.5625 -14.6875 8.25 -14.71875 Z M 9.296875 -11.609375 C 9.328125 -12.128906 9.179688 -12.503906 8.859375 -12.734375 C 8.546875 -12.972656 8.253906 -13.082031 7.984375 -13.0625 C 7.597656 -13.050781 7.179688 -12.875 6.734375 -12.53125 C 6.296875 -12.195312 5.859375 -11.769531 5.421875 -11.25 C 4.984375 -10.726562 4.566406 -10.179688 4.171875 -9.609375 C 3.785156 -9.046875 3.445312 -8.523438 3.15625 -8.046875 L 2.859375 -5.734375 C 3.546875 -5.847656 4.253906 -6.109375 4.984375 -6.515625 C 5.722656 -6.921875 6.410156 -7.40625 7.046875 -7.96875 C 7.679688 -8.539062 8.207031 -9.144531 8.625 -9.78125 C 9.039062 -10.414062 9.265625 -11.023438 9.296875 -11.609375 Z M 9.296875 -11.609375 "/></g></g></g><g fill="#b15998" fill-opacity="1"><g transform="translate(11.422218, 17.139788)"><g><path d="M 5.703125 -6.4375 C 5.765625 -6.4375 5.8125 -6.359375 5.84375 -6.203125 C 5.875 -6.054688 5.878906 -5.878906 5.859375 -5.671875 C 5.847656 -5.472656 5.8125 -5.300781 5.75 -5.15625 C 5.6875 -5.007812 5.601562 -4.9375 5.5 -4.9375 C 4.976562 -4.988281 4.472656 -4.851562 3.984375 -4.53125 C 3.503906 -4.207031 3.0625 -3.785156 2.65625 -3.265625 C 2.25 -2.742188 1.90625 -2.195312 1.625 -1.625 C 1.34375 -1.0625 1.140625 -0.554688 1.015625 -0.109375 C 1.015625 -0.0351562 0.984375 -0.015625 0.921875 -0.046875 C 0.921875 -0.046875 0.804688 -0.0351562 0.578125 -0.015625 C 0.359375 -0.00390625 0.132812 -0.0078125 -0.09375 -0.03125 C -0.320312 -0.0507812 -0.46875 -0.117188 -0.53125 -0.234375 C -0.53125 -0.878906 -0.503906 -1.550781 -0.453125 -2.25 C -0.398438 -2.957031 -0.332031 -3.632812 -0.25 -4.28125 C -0.175781 -4.9375 -0.113281 -5.503906 -0.0625 -5.984375 C -0.0078125 -6.535156 0.0664062 -6.863281 0.171875 -6.96875 C 0.285156 -7.070312 0.410156 -7.132812 0.546875 -7.15625 C 1.085938 -7.164062 1.414062 -7.140625 1.53125 -7.078125 C 1.65625 -7.015625 1.703125 -6.84375 1.671875 -6.5625 C 1.648438 -6.320312 1.613281 -6.019531 1.5625 -5.65625 C 1.519531 -5.289062 1.472656 -4.921875 1.421875 -4.546875 C 1.378906 -4.179688 1.34375 -3.863281 1.3125 -3.59375 C 1.4375 -3.894531 1.628906 -4.226562 1.890625 -4.59375 C 2.160156 -4.96875 2.488281 -5.316406 2.875 -5.640625 C 3.269531 -5.960938 3.707031 -6.203125 4.1875 -6.359375 C 4.675781 -6.515625 5.179688 -6.539062 5.703125 -6.4375 Z M 5.703125 -6.4375 "/></g></g></g><g fill="#b15998" fill-opacity="1"><g transform="translate(18.323375, 17.139788)"><g><path d="M 7.984375 -4.53125 C 8.054688 -4.457031 8.046875 -4.359375 7.953125 -4.234375 C 7.753906 -4.003906 7.382812 -3.726562 6.84375 -3.40625 C 6.3125 -3.09375 5.625 -2.878906 4.78125 -2.765625 C 4.625 -2.285156 4.390625 -1.8125 4.078125 -1.34375 C 3.765625 -0.875 3.367188 -0.507812 2.890625 -0.25 C 2.421875 0.0078125 1.859375 0.0703125 1.203125 -0.0625 C 0.691406 -0.175781 0.300781 -0.375 0.03125 -0.65625 C -0.238281 -0.9375 -0.414062 -1.265625 -0.5 -1.640625 C -0.582031 -2.015625 -0.609375 -2.382812 -0.578125 -2.75 C -0.554688 -3.125 -0.515625 -3.4375 -0.453125 -3.6875 C -0.347656 -4.082031 -0.164062 -4.570312 0.09375 -5.15625 C 0.363281 -5.738281 0.785156 -6.265625 1.359375 -6.734375 C 1.523438 -6.859375 1.660156 -6.9375 1.765625 -6.96875 C 1.890625 -7.039062 2 -7.085938 2.09375 -7.109375 C 2.34375 -7.203125 2.597656 -7.234375 2.859375 -7.203125 C 3.117188 -7.171875 3.25 -7.15625 3.25 -7.15625 C 3.25 -7.15625 3.347656 -7.125 3.546875 -7.0625 C 3.742188 -7 3.96875 -6.867188 4.21875 -6.671875 C 4.46875 -6.484375 4.679688 -6.191406 4.859375 -5.796875 C 5.035156 -5.410156 5.101562 -4.890625 5.0625 -4.234375 C 5.363281 -4.242188 5.703125 -4.320312 6.078125 -4.46875 C 6.453125 -4.613281 6.8125 -4.828125 7.15625 -5.109375 C 7.195312 -5.140625 7.242188 -5.171875 7.296875 -5.203125 C 7.359375 -5.242188 7.398438 -5.25 7.421875 -5.21875 Z M 2.890625 -6.09375 C 2.722656 -6.09375 2.550781 -5.992188 2.375 -5.796875 C 2.195312 -5.609375 2.113281 -5.390625 2.125 -5.140625 C 2.132812 -4.898438 2.304688 -4.679688 2.640625 -4.484375 C 2.921875 -4.328125 3.257812 -4.226562 3.65625 -4.1875 C 3.726562 -4.78125 3.679688 -5.253906 3.515625 -5.609375 C 3.347656 -5.960938 3.140625 -6.125 2.890625 -6.09375 Z M 1.90625 -1.234375 C 2.03125 -1.265625 2.222656 -1.414062 2.484375 -1.6875 C 2.753906 -1.957031 3 -2.316406 3.21875 -2.765625 C 3.15625 -2.773438 3.082031 -2.785156 3 -2.796875 C 2.914062 -2.816406 2.835938 -2.835938 2.765625 -2.859375 C 2.410156 -2.929688 2.101562 -3.066406 1.84375 -3.265625 C 1.59375 -3.460938 1.398438 -3.6875 1.265625 -3.9375 C 1.191406 -3.738281 1.125 -3.535156 1.0625 -3.328125 C 1.007812 -3.117188 0.976562 -2.898438 0.96875 -2.671875 C 0.945312 -2.148438 0.988281 -1.78125 1.09375 -1.5625 C 1.207031 -1.34375 1.34375 -1.226562 1.5 -1.21875 C 1.664062 -1.207031 1.800781 -1.210938 1.90625 -1.234375 Z M 1.90625 -1.234375 "/></g></g></g><g fill="#b15998" fill-opacity="1"><g transform="translate(25.132515, 17.139788)"><g><path d="M 5.5625 -14.765625 C 6.164062 -14.535156 6.5625 -14.171875 6.75 -13.671875 C 6.9375 -13.171875 6.960938 -12.601562 6.828125 -11.96875 C 6.703125 -11.332031 6.453125 -10.691406 6.078125 -10.046875 C 5.890625 -9.742188 5.613281 -9.378906 5.25 -8.953125 C 4.894531 -8.535156 4.441406 -8.140625 3.890625 -7.765625 C 3.335938 -7.390625 2.675781 -7.101562 1.90625 -6.90625 C 1.875 -6.65625 1.832031 -6.398438 1.78125 -6.140625 C 1.738281 -5.890625 1.703125 -5.632812 1.671875 -5.375 C 2.015625 -5.363281 2.347656 -5.367188 2.671875 -5.390625 C 2.992188 -5.410156 3.335938 -5.5 3.703125 -5.65625 C 3.742188 -5.675781 3.789062 -5.613281 3.84375 -5.46875 C 3.90625 -5.320312 3.953125 -5.144531 3.984375 -4.9375 C 4.023438 -4.726562 4.039062 -4.535156 4.03125 -4.359375 C 4.03125 -4.191406 4 -4.101562 3.9375 -4.09375 C 3.550781 -3.9375 3.148438 -3.847656 2.734375 -3.828125 C 2.316406 -3.816406 1.894531 -3.828125 1.46875 -3.859375 C 1.375 -3.160156 1.289062 -2.519531 1.21875 -1.9375 C 1.144531 -1.351562 1.085938 -0.882812 1.046875 -0.53125 C 1.003906 -0.1875 0.984375 -0.015625 0.984375 -0.015625 C 0.984375 -0.015625 0.875 -0.0078125 0.65625 0 C 0.445312 0 0.222656 -0.015625 -0.015625 -0.046875 C -0.253906 -0.078125 -0.394531 -0.15625 -0.4375 -0.28125 C -0.414062 -0.769531 -0.367188 -1.359375 -0.296875 -2.046875 C -0.234375 -2.734375 -0.148438 -3.476562 -0.046875 -4.28125 C 0.046875 -5.09375 0.15625 -5.894531 0.28125 -6.6875 C -0.457031 -6.65625 -1.238281 -6.753906 -2.0625 -6.984375 C -2.1875 -7.015625 -2.273438 -7.09375 -2.328125 -7.21875 C -2.390625 -7.34375 -2.394531 -7.457031 -2.34375 -7.5625 L -2.109375 -8.078125 C -1.992188 -8.273438 -1.84375 -8.347656 -1.65625 -8.296875 C -1.4375 -8.253906 -1.132812 -8.207031 -0.75 -8.15625 C -0.375 -8.113281 0.0507812 -8.117188 0.53125 -8.171875 C 0.664062 -8.960938 0.804688 -9.675781 0.953125 -10.3125 C 1.097656 -10.945312 1.222656 -11.4375 1.328125 -11.78125 C 1.554688 -12.414062 1.878906 -13.003906 2.296875 -13.546875 C 2.710938 -14.097656 3.195312 -14.503906 3.75 -14.765625 C 4.300781 -15.023438 4.90625 -15.023438 5.5625 -14.765625 Z M 5.453125 -12.28125 C 5.578125 -12.632812 5.625 -12.941406 5.59375 -13.203125 C 5.5625 -13.472656 5.429688 -13.671875 5.203125 -13.796875 C 5.078125 -13.878906 4.867188 -13.863281 4.578125 -13.75 C 4.296875 -13.644531 3.992188 -13.390625 3.671875 -12.984375 C 3.359375 -12.578125 3.0625 -11.957031 2.78125 -11.125 C 2.6875 -10.832031 2.585938 -10.460938 2.484375 -10.015625 C 2.390625 -9.578125 2.289062 -9.09375 2.1875 -8.5625 C 2.832031 -8.820312 3.445312 -9.238281 4.03125 -9.8125 C 4.613281 -10.382812 5.085938 -11.207031 5.453125 -12.28125 Z M 5.453125 -12.28125 "/></g></g></g><g fill="#b15998" fill-opacity="1"><g transform="translate(30.239357, 17.139788)"><g><path d="M 4.734375 -1.703125 C 4.847656 -1.660156 4.875 -1.566406 4.8125 -1.421875 C 4.5625 -1.015625 4.207031 -0.65625 3.75 -0.34375 C 3.300781 -0.0390625 2.816406 0.140625 2.296875 0.203125 C 1.773438 0.265625 1.28125 0.148438 0.8125 -0.140625 C 0.363281 -0.410156 0.0195312 -0.796875 -0.21875 -1.296875 C -0.46875 -1.796875 -0.546875 -2.5625 -0.453125 -3.59375 C -0.367188 -4.414062 -0.140625 -5.082031 0.234375 -5.59375 C 0.617188 -6.113281 1.0625 -6.484375 1.5625 -6.703125 C 2.070312 -6.921875 2.554688 -7.007812 3.015625 -6.96875 C 3.347656 -6.957031 3.671875 -6.859375 3.984375 -6.671875 C 4.304688 -6.484375 4.53125 -6.203125 4.65625 -5.828125 C 4.789062 -5.453125 4.734375 -4.957031 4.484375 -4.34375 C 4.347656 -3.988281 4.085938 -3.644531 3.703125 -3.3125 C 3.316406 -2.976562 2.898438 -2.691406 2.453125 -2.453125 C 2.015625 -2.222656 1.625 -2.085938 1.28125 -2.046875 C 1.332031 -1.847656 1.410156 -1.664062 1.515625 -1.5 C 1.617188 -1.34375 1.773438 -1.226562 1.984375 -1.15625 C 2.242188 -1.039062 2.546875 -1.078125 2.890625 -1.265625 C 3.234375 -1.453125 3.550781 -1.710938 3.84375 -2.046875 C 3.914062 -2.140625 4 -2.15625 4.09375 -2.09375 Z M 3.328125 -5.65625 C 3.179688 -5.757812 2.945312 -5.75 2.625 -5.625 C 2.3125 -5.507812 2.015625 -5.285156 1.734375 -4.953125 C 1.460938 -4.628906 1.304688 -4.207031 1.265625 -3.6875 C 1.265625 -3.632812 1.257812 -3.585938 1.25 -3.546875 C 1.238281 -3.515625 1.234375 -3.472656 1.234375 -3.421875 C 1.785156 -3.609375 2.25 -3.851562 2.625 -4.15625 C 3.007812 -4.46875 3.265625 -4.769531 3.390625 -5.0625 C 3.523438 -5.351562 3.503906 -5.550781 3.328125 -5.65625 Z M 3.328125 -5.65625 "/></g></g></g><g fill="#b15998" fill-opacity="1"><g transform="translate(36.335371, 17.139788)"><g/></g></g><g fill="#b15998" fill-opacity="1"><g transform="translate(42.868462, 17.139788)"><g><path d="M 7.3125 -15.140625 C 7.757812 -15.015625 8.113281 -14.675781 8.375 -14.125 C 8.644531 -13.570312 8.847656 -12.878906 8.984375 -12.046875 C 9.128906 -11.222656 9.21875 -10.320312 9.25 -9.34375 C 9.289062 -8.375 9.296875 -7.394531 9.265625 -6.40625 C 9.234375 -5.425781 9.179688 -4.503906 9.109375 -3.640625 C 9.046875 -2.773438 8.984375 -2.039062 8.921875 -1.4375 C 8.859375 -0.832031 8.8125 -0.421875 8.78125 -0.203125 C 8.78125 -0.128906 8.734375 -0.09375 8.640625 -0.09375 L 7.109375 -0.09375 C 7.003906 -0.09375 6.953125 -0.144531 6.953125 -0.25 C 6.972656 -0.445312 7.003906 -0.800781 7.046875 -1.3125 C 7.085938 -1.832031 7.132812 -2.457031 7.1875 -3.1875 C 7.238281 -3.914062 7.28125 -4.675781 7.3125 -5.46875 C 6.894531 -5.457031 6.425781 -5.4375 5.90625 -5.40625 C 5.382812 -5.382812 4.863281 -5.359375 4.34375 -5.328125 C 3.820312 -5.304688 3.351562 -5.269531 2.9375 -5.21875 C 2.726562 -4.457031 2.53125 -3.734375 2.34375 -3.046875 C 2.15625 -2.367188 2.003906 -1.785156 1.890625 -1.296875 C 1.773438 -0.816406 1.695312 -0.492188 1.65625 -0.328125 C 1.65625 -0.242188 1.601562 -0.203125 1.5 -0.203125 L 0.109375 -0.4375 C 0.078125 -0.4375 0.046875 -0.453125 0.015625 -0.484375 C -0.00390625 -0.523438 -0.0078125 -0.5625 0 -0.59375 C 0.0390625 -0.820312 0.140625 -1.269531 0.296875 -1.9375 C 0.453125 -2.601562 0.644531 -3.40625 0.875 -4.34375 C 1.113281 -5.289062 1.394531 -6.289062 1.71875 -7.34375 C 2.039062 -8.394531 2.40625 -9.414062 2.8125 -10.40625 C 3.21875 -11.394531 3.65625 -12.273438 4.125 -13.046875 C 4.59375 -13.828125 5.09375 -14.410156 5.625 -14.796875 C 6.164062 -15.191406 6.726562 -15.304688 7.3125 -15.140625 Z M 3.453125 -6.921875 C 3.921875 -6.960938 4.523438 -7.003906 5.265625 -7.046875 C 6.015625 -7.097656 6.722656 -7.125 7.390625 -7.125 C 7.410156 -8.125 7.40625 -9.0625 7.375 -9.9375 C 7.351562 -10.820312 7.289062 -11.554688 7.1875 -12.140625 C 7.082031 -12.722656 6.925781 -13.039062 6.71875 -13.09375 C 6.457031 -13.144531 6.1875 -13.003906 5.90625 -12.671875 C 5.632812 -12.347656 5.351562 -11.890625 5.0625 -11.296875 C 4.78125 -10.710938 4.5 -10.039062 4.21875 -9.28125 C 3.945312 -8.519531 3.691406 -7.734375 3.453125 -6.921875 Z M 3.453125 -6.921875 "/></g></g></g><g fill="#b15998" fill-opacity="1"><g transform="translate(53.542284, 17.139788)"><g><path d="M 7.34375 -3.984375 C 7.457031 -3.890625 7.476562 -3.78125 7.40625 -3.65625 C 7.3125 -3.457031 7.140625 -3.15625 6.890625 -2.75 C 6.640625 -2.351562 6.320312 -1.941406 5.9375 -1.515625 C 5.550781 -1.097656 5.101562 -0.738281 4.59375 -0.4375 C 4.09375 -0.144531 3.539062 0 2.9375 0 C 2.050781 0 1.300781 -0.332031 0.6875 -1 C 0.0703125 -1.664062 -0.335938 -2.640625 -0.546875 -3.921875 C -0.765625 -5.210938 -0.726562 -6.800781 -0.4375 -8.6875 C -0.207031 -10.226562 0.113281 -11.453125 0.53125 -12.359375 C 0.945312 -13.273438 1.410156 -13.929688 1.921875 -14.328125 C 2.429688 -14.722656 2.953125 -14.910156 3.484375 -14.890625 C 4.023438 -14.878906 4.539062 -14.707031 5.03125 -14.375 C 5.207031 -14.269531 5.378906 -14.054688 5.546875 -13.734375 C 5.710938 -13.421875 5.804688 -12.988281 5.828125 -12.4375 C 5.847656 -11.882812 5.722656 -11.195312 5.453125 -10.375 C 5.191406 -9.5625 4.71875 -8.601562 4.03125 -7.5 C 3.351562 -6.394531 2.378906 -5.125 1.109375 -3.6875 C 1.242188 -3.039062 1.457031 -2.503906 1.75 -2.078125 C 2.050781 -1.660156 2.457031 -1.453125 2.96875 -1.453125 C 3.269531 -1.453125 3.582031 -1.566406 3.90625 -1.796875 C 4.226562 -2.035156 4.539062 -2.328125 4.84375 -2.671875 C 5.144531 -3.023438 5.410156 -3.363281 5.640625 -3.6875 C 5.867188 -4.019531 6.035156 -4.28125 6.140625 -4.46875 C 6.210938 -4.613281 6.328125 -4.640625 6.484375 -4.546875 Z M 4.140625 -13.5 C 3.921875 -13.71875 3.644531 -13.734375 3.3125 -13.546875 C 2.976562 -13.359375 2.625 -12.878906 2.25 -12.109375 C 1.882812 -11.335938 1.539062 -10.160156 1.21875 -8.578125 C 1.144531 -8.191406 1.082031 -7.769531 1.03125 -7.3125 C 0.988281 -6.863281 0.957031 -6.421875 0.9375 -5.984375 C 1.863281 -7.191406 2.570312 -8.238281 3.0625 -9.125 C 3.550781 -10.019531 3.882812 -10.773438 4.0625 -11.390625 C 4.25 -12.003906 4.332031 -12.484375 4.3125 -12.828125 C 4.300781 -13.171875 4.242188 -13.394531 4.140625 -13.5 Z M 4.140625 -13.5 "/></g></g></g><g fill="#b15998" fill-opacity="1"><g transform="translate(59.615295, 17.139788)"><g><path d="M 4.734375 -1.703125 C 4.847656 -1.660156 4.875 -1.566406 4.8125 -1.421875 C 4.5625 -1.015625 4.207031 -0.65625 3.75 -0.34375 C 3.300781 -0.0390625 2.816406 0.140625 2.296875 0.203125 C 1.773438 0.265625 1.28125 0.148438 0.8125 -0.140625 C 0.363281 -0.410156 0.0195312 -0.796875 -0.21875 -1.296875 C -0.46875 -1.796875 -0.546875 -2.5625 -0.453125 -3.59375 C -0.367188 -4.414062 -0.140625 -5.082031 0.234375 -5.59375 C 0.617188 -6.113281 1.0625 -6.484375 1.5625 -6.703125 C 2.070312 -6.921875 2.554688 -7.007812 3.015625 -6.96875 C 3.347656 -6.957031 3.671875 -6.859375 3.984375 -6.671875 C 4.304688 -6.484375 4.53125 -6.203125 4.65625 -5.828125 C 4.789062 -5.453125 4.734375 -4.957031 4.484375 -4.34375 C 4.347656 -3.988281 4.085938 -3.644531 3.703125 -3.3125 C 3.316406 -2.976562 2.898438 -2.691406 2.453125 -2.453125 C 2.015625 -2.222656 1.625 -2.085938 1.28125 -2.046875 C 1.332031 -1.847656 1.410156 -1.664062 1.515625 -1.5 C 1.617188 -1.34375 1.773438 -1.226562 1.984375 -1.15625 C 2.242188 -1.039062 2.546875 -1.078125 2.890625 -1.265625 C 3.234375 -1.453125 3.550781 -1.710938 3.84375 -2.046875 C 3.914062 -2.140625 4 -2.15625 4.09375 -2.09375 Z M 3.328125 -5.65625 C 3.179688 -5.757812 2.945312 -5.75 2.625 -5.625 C 2.3125 -5.507812 2.015625 -5.285156 1.734375 -4.953125 C 1.460938 -4.628906 1.304688 -4.207031 1.265625 -3.6875 C 1.265625 -3.632812 1.257812 -3.585938 1.25 -3.546875 C 1.238281 -3.515625 1.234375 -3.472656 1.234375 -3.421875 C 1.785156 -3.609375 2.25 -3.851562 2.625 -4.15625 C 3.007812 -4.46875 3.265625 -4.769531 3.390625 -5.0625 C 3.523438 -5.351562 3.503906 -5.550781 3.328125 -5.65625 Z M 3.328125 -5.65625 "/></g></g></g><g clip-path="url(#76fe491cff)"><g fill="#b15998" fill-opacity="1"><g transform="translate(65.711309, 17.139788)"><g><path d="M 0.765625 0.984375 C 1.628906 0.953125 2.570312 1.097656 3.59375 1.421875 L 2.96875 2.4375 C 2.96875 2.4375 2.859375 2.40625 2.640625 2.34375 C 2.429688 2.28125 2.144531 2.226562 1.78125 2.1875 C 1.414062 2.15625 1.015625 2.171875 0.578125 2.234375 C 0.421875 3.078125 0.269531 3.835938 0.125 4.515625 C -0.0195312 5.203125 -0.15625 5.722656 -0.28125 6.078125 C -0.507812 6.703125 -0.828125 7.289062 -1.234375 7.84375 C -1.648438 8.394531 -2.132812 8.796875 -2.6875 9.046875 C -3.238281 9.304688 -3.847656 9.3125 -4.515625 9.0625 C -5.085938 8.832031 -5.46875 8.46875 -5.65625 7.96875 C -5.851562 7.46875 -5.882812 6.898438 -5.75 6.265625 C -5.625 5.628906 -5.378906 4.988281 -5.015625 4.34375 C -4.828125 4.019531 -4.550781 3.648438 -4.1875 3.234375 C -3.832031 2.828125 -3.378906 2.429688 -2.828125 2.046875 C -2.273438 1.660156 -1.613281 1.378906 -0.84375 1.203125 C -0.820312 0.941406 -0.773438 0.546875 -0.703125 0.015625 C -0.628906 -0.503906 -0.554688 -1.070312 -0.484375 -1.6875 C -0.410156 -2.3125 -0.332031 -2.914062 -0.25 -3.5 C -0.175781 -4.082031 -0.113281 -4.578125 -0.0625 -4.984375 C -0.0078125 -5.390625 0.0234375 -5.628906 0.046875 -5.703125 C 0.046875 -5.773438 0.0820312 -5.8125 0.15625 -5.8125 C 0.28125 -5.84375 0.476562 -5.878906 0.75 -5.921875 C 1.03125 -5.960938 1.332031 -5.925781 1.65625 -5.8125 C 1.726562 -5.78125 1.765625 -5.710938 1.765625 -5.609375 C 1.765625 -5.546875 1.726562 -5.28125 1.65625 -4.8125 C 1.582031 -4.34375 1.492188 -3.765625 1.390625 -3.078125 C 1.285156 -2.390625 1.175781 -1.679688 1.0625 -0.953125 C 0.945312 -0.222656 0.847656 0.421875 0.765625 0.984375 Z M -1.71875 5.421875 C -1.613281 5.117188 -1.507812 4.734375 -1.40625 4.265625 C -1.3125 3.796875 -1.210938 3.28125 -1.109375 2.71875 C -1.742188 3.007812 -2.359375 3.453125 -2.953125 4.046875 C -3.546875 4.640625 -4.019531 5.484375 -4.375 6.578125 C -4.488281 6.941406 -4.535156 7.253906 -4.515625 7.515625 C -4.492188 7.773438 -4.367188 7.976562 -4.140625 8.125 C -4.015625 8.1875 -3.8125 8.160156 -3.53125 8.046875 C -3.25 7.941406 -2.941406 7.679688 -2.609375 7.265625 C -2.273438 6.847656 -1.976562 6.234375 -1.71875 5.421875 Z M 1.5 -6.859375 C 1.34375 -6.773438 1.148438 -6.753906 0.921875 -6.796875 C 0.703125 -6.847656 0.515625 -6.953125 0.359375 -7.109375 C 0.210938 -7.273438 0.160156 -7.5 0.203125 -7.78125 C 0.222656 -7.894531 0.273438 -8.03125 0.359375 -8.1875 C 0.441406 -8.34375 0.570312 -8.453125 0.75 -8.515625 C 0.9375 -8.585938 1.175781 -8.554688 1.46875 -8.421875 C 1.75 -8.304688 1.898438 -8.132812 1.921875 -7.90625 C 1.941406 -7.675781 1.90625 -7.457031 1.8125 -7.25 C 1.71875 -7.050781 1.613281 -6.921875 1.5 -6.859375 Z M 1.5 -6.859375 "/></g></g></g></g><g fill="#b15998" fill-opacity="1"><g transform="translate(68.908812, 17.139788)"><g><path d="M 7.984375 -4.53125 C 8.054688 -4.457031 8.046875 -4.359375 7.953125 -4.234375 C 7.753906 -4.003906 7.382812 -3.726562 6.84375 -3.40625 C 6.3125 -3.09375 5.625 -2.878906 4.78125 -2.765625 C 4.625 -2.285156 4.390625 -1.8125 4.078125 -1.34375 C 3.765625 -0.875 3.367188 -0.507812 2.890625 -0.25 C 2.421875 0.0078125 1.859375 0.0703125 1.203125 -0.0625 C 0.691406 -0.175781 0.300781 -0.375 0.03125 -0.65625 C -0.238281 -0.9375 -0.414062 -1.265625 -0.5 -1.640625 C -0.582031 -2.015625 -0.609375 -2.382812 -0.578125 -2.75 C -0.554688 -3.125 -0.515625 -3.4375 -0.453125 -3.6875 C -0.347656 -4.082031 -0.164062 -4.570312 0.09375 -5.15625 C 0.363281 -5.738281 0.785156 -6.265625 1.359375 -6.734375 C 1.523438 -6.859375 1.660156 -6.9375 1.765625 -6.96875 C 1.890625 -7.039062 2 -7.085938 2.09375 -7.109375 C 2.34375 -7.203125 2.597656 -7.234375 2.859375 -7.203125 C 3.117188 -7.171875 3.25 -7.15625 3.25 -7.15625 C 3.25 -7.15625 3.347656 -7.125 3.546875 -7.0625 C 3.742188 -7 3.96875 -6.867188 4.21875 -6.671875 C 4.46875 -6.484375 4.679688 -6.191406 4.859375 -5.796875 C 5.035156 -5.410156 5.101562 -4.890625 5.0625 -4.234375 C 5.363281 -4.242188 5.703125 -4.320312 6.078125 -4.46875 C 6.453125 -4.613281 6.8125 -4.828125 7.15625 -5.109375 C 7.195312 -5.140625 7.242188 -5.171875 7.296875 -5.203125 C 7.359375 -5.242188 7.398438 -5.25 7.421875 -5.21875 Z M 2.890625 -6.09375 C 2.722656 -6.09375 2.550781 -5.992188 2.375 -5.796875 C 2.195312 -5.609375 2.113281 -5.390625 2.125 -5.140625 C 2.132812 -4.898438 2.304688 -4.679688 2.640625 -4.484375 C 2.921875 -4.328125 3.257812 -4.226562 3.65625 -4.1875 C 3.726562 -4.78125 3.679688 -5.253906 3.515625 -5.609375 C 3.347656 -5.960938 3.140625 -6.125 2.890625 -6.09375 Z M 1.90625 -1.234375 C 2.03125 -1.265625 2.222656 -1.414062 2.484375 -1.6875 C 2.753906 -1.957031 3 -2.316406 3.21875 -2.765625 C 3.15625 -2.773438 3.082031 -2.785156 3 -2.796875 C 2.914062 -2.816406 2.835938 -2.835938 2.765625 -2.859375 C 2.410156 -2.929688 2.101562 -3.066406 1.84375 -3.265625 C 1.59375 -3.460938 1.398438 -3.6875 1.265625 -3.9375 C 1.191406 -3.738281 1.125 -3.535156 1.0625 -3.328125 C 1.007812 -3.117188 0.976562 -2.898438 0.96875 -2.671875 C 0.945312 -2.148438 0.988281 -1.78125 1.09375 -1.5625 C 1.207031 -1.34375 1.34375 -1.226562 1.5 -1.21875 C 1.664062 -1.207031 1.800781 -1.210938 1.90625 -1.234375 Z M 1.90625 -1.234375 "/></g></g></g><g fill="#b15998" fill-opacity="1"><g transform="translate(75.717955, 17.139788)"><g/></g></g><g fill="#b15998" fill-opacity="1"><g transform="translate(82.251043, 17.139788)"><g><path d="M 7.8125 -14.390625 C 7.9375 -14.390625 8 -14.316406 8 -14.171875 L 7.84375 -13.046875 C 7.8125 -12.929688 7.742188 -12.875 7.640625 -12.875 C 7.347656 -12.875 6.867188 -12.867188 6.203125 -12.859375 C 5.546875 -12.859375 4.734375 -12.847656 3.765625 -12.828125 L 3.078125 -8.421875 C 3.691406 -8.367188 4.203125 -8.335938 4.609375 -8.328125 C 5.015625 -8.328125 5.457031 -8.328125 5.9375 -8.328125 C 6.082031 -8.328125 6.144531 -8.25 6.125 -8.09375 L 5.953125 -6.984375 C 5.921875 -6.867188 5.851562 -6.8125 5.75 -6.8125 C 5.5 -6.820312 5.148438 -6.816406 4.703125 -6.796875 C 4.265625 -6.785156 3.648438 -6.789062 2.859375 -6.8125 L 2.15625 -1.703125 C 2.9375 -1.734375 3.710938 -1.734375 4.484375 -1.703125 C 5.265625 -1.671875 5.894531 -1.65625 6.375 -1.65625 C 6.519531 -1.65625 6.582031 -1.585938 6.5625 -1.453125 L 6.390625 -0.328125 C 6.359375 -0.203125 6.289062 -0.140625 6.1875 -0.140625 C 6.0625 -0.140625 5.800781 -0.132812 5.40625 -0.125 C 5.019531 -0.113281 4.578125 -0.101562 4.078125 -0.09375 C 3.578125 -0.09375 3.09375 -0.0820312 2.625 -0.0625 C 2.164062 -0.0507812 1.773438 -0.0390625 1.453125 -0.03125 C 1.140625 -0.0195312 0.984375 -0.015625 0.984375 -0.015625 C 0.921875 -0.015625 0.84375 -0.0078125 0.75 0 C 0.664062 0 0.613281 0 0.59375 0 C 0.488281 -0.03125 0.390625 -0.0859375 0.296875 -0.171875 C 0.203125 -0.253906 0.148438 -0.359375 0.140625 -0.484375 C 0.140625 -0.546875 0.140625 -0.578125 0.140625 -0.578125 L 0.9375 -6.71875 L 1.171875 -8.34375 L 1.71875 -12.515625 C 1.71875 -12.515625 1.734375 -12.597656 1.765625 -12.765625 C 1.796875 -12.929688 1.835938 -13.132812 1.890625 -13.375 C 1.953125 -13.613281 2 -13.816406 2.03125 -13.984375 C 2.050781 -14.210938 2.1875 -14.34375 2.4375 -14.375 C 2.507812 -14.382812 2.570312 -14.390625 2.625 -14.390625 C 2.6875 -14.390625 2.722656 -14.390625 2.734375 -14.390625 C 2.898438 -14.410156 3.046875 -14.421875 3.171875 -14.421875 C 3.296875 -14.421875 3.570312 -14.425781 4 -14.4375 C 4.769531 -14.46875 5.515625 -14.46875 6.234375 -14.4375 C 6.953125 -14.40625 7.476562 -14.390625 7.8125 -14.390625 Z M 7.8125 -14.390625 "/></g></g></g><g fill="#b15998" fill-opacity="1"><g transform="translate(89.865329, 17.139788)"><g><path d="M 4.4375 -1.703125 C 4.71875 -1.734375 5.09375 -1.878906 5.5625 -2.140625 C 6.039062 -2.398438 6.546875 -2.765625 7.078125 -3.234375 C 7.617188 -3.710938 8.101562 -4.273438 8.53125 -4.921875 C 8.625 -5.023438 8.734375 -5.054688 8.859375 -5.015625 L 9.828125 -4.59375 C 9.898438 -4.5625 9.953125 -4.507812 9.984375 -4.4375 C 10.015625 -4.363281 10.003906 -4.285156 9.953125 -4.203125 C 9.679688 -3.640625 9.316406 -3.09375 8.859375 -2.5625 C 8.398438 -2.03125 7.878906 -1.554688 7.296875 -1.140625 C 6.722656 -0.734375 6.125 -0.425781 5.5 -0.21875 C 4.882812 -0.0078125 4.265625 0.0546875 3.640625 -0.015625 C 2.941406 -0.109375 2.375 -0.332031 1.9375 -0.6875 C 1.5 -1.039062 1.15625 -1.484375 0.90625 -2.015625 C 0.664062 -2.546875 0.503906 -3.097656 0.421875 -3.671875 C 0.335938 -4.253906 0.300781 -4.828125 0.3125 -5.390625 C 0.320312 -5.953125 0.351562 -6.445312 0.40625 -6.875 C 0.519531 -7.613281 0.707031 -8.390625 0.96875 -9.203125 C 1.226562 -10.023438 1.5625 -10.816406 1.96875 -11.578125 C 2.382812 -12.335938 2.882812 -13.003906 3.46875 -13.578125 C 4.050781 -14.148438 4.71875 -14.5625 5.46875 -14.8125 C 5.820312 -14.9375 6.207031 -15 6.625 -15 C 7.039062 -15.007812 7.445312 -14.929688 7.84375 -14.765625 C 8.238281 -14.597656 8.585938 -14.3125 8.890625 -13.90625 C 9.203125 -13.5 9.421875 -12.925781 9.546875 -12.1875 C 9.578125 -12.113281 9.59375 -12.015625 9.59375 -11.890625 C 9.601562 -11.765625 9.617188 -11.671875 9.640625 -11.609375 C 9.671875 -11.535156 9.65625 -11.460938 9.59375 -11.390625 C 9.539062 -11.328125 9.476562 -11.285156 9.40625 -11.265625 L 8.46875 -11.125 C 8.300781 -11.125 8.191406 -11.203125 8.140625 -11.359375 C 8.078125 -11.671875 7.992188 -11.992188 7.890625 -12.328125 C 7.785156 -12.660156 7.625 -12.941406 7.40625 -13.171875 C 7.1875 -13.410156 6.878906 -13.53125 6.484375 -13.53125 C 6.148438 -13.53125 5.828125 -13.414062 5.515625 -13.1875 C 5.210938 -12.96875 4.925781 -12.691406 4.65625 -12.359375 C 4.382812 -12.035156 4.148438 -11.703125 3.953125 -11.359375 C 3.753906 -11.023438 3.597656 -10.742188 3.484375 -10.515625 C 3.367188 -10.296875 3.3125 -10.179688 3.3125 -10.171875 C 3.082031 -9.691406 2.859375 -9.125 2.640625 -8.46875 C 2.429688 -7.820312 2.28125 -7.066406 2.1875 -6.203125 C 2.0625 -5.023438 2.097656 -4.101562 2.296875 -3.4375 C 2.492188 -2.769531 2.789062 -2.304688 3.1875 -2.046875 C 3.59375 -1.785156 4.007812 -1.671875 4.4375 -1.703125 Z M 4.4375 -1.703125 "/></g></g></g></g></g></svg>